<?xml version="1.0" encoding="UTF-8"?>
<svg xmlns="http://www.w3.org/2000/svg" xmlns:xlink="http://www.w3.org/1999/xlink" viewBox="0 0 30 30" width="30px" height="30px">
<g id="surface149384297">
<path style="fill-rule:nonzero;fill:rgb(100%,100%,100%);fill-opacity:1;stroke-width:10;stroke-linecap:butt;stroke-linejoin:round;stroke:rgb(100%,100%,100%);stroke-opacity:1;stroke-miterlimit:10;" d="M 110.933333 34.133333 L 110.933333 102.4 C 110.933333 92.966667 118.566667 85.333333 128 85.333333 C 137.433333 85.333333 145.066667 92.966667 145.066667 102.4 L 145.066667 110.933333 C 145.066667 101.5 152.7 93.866667 162.133333 93.866667 C 171.566667 93.866667 179.2 101.5 179.2 110.933333 C 179.2 110.933333 179.766667 111.466667 180.866667 112.2 C 183.666667 106.233333 189.666667 102.4 196.266667 102.4 C 205.7 102.4 213.333333 110.033333 213.333333 119.466667 L 213.333333 204.8 C 213.333333 223.666667 198.066667 238.933333 179.2 238.933333 L 122.166667 238.933333 C 104.033333 238.933333 86.666667 231.733333 73.866667 218.933333 L 46.933333 192 L 8.566667 174.833333 C 8.6 158.533333 21.366667 153.6 34.133333 153.6 C 45.133333 153.6 55.033333 155.3 76.8 166.4 L 76.8 34.133333 C 76.8 24.7 84.433333 17.066667 93.866667 17.066667 C 103.3 17.066667 110.933333 24.7 110.933333 34.133333 Z M 8.533333 174.933333 L 8.533333 174.8 C 8.533333 174.866667 8.533333 174.9 8.533333 174.933333 Z M 8.533333 174.933333 " transform="matrix(0.117188,0,0,0.117188,0,0)"/>
<path style=" stroke:none;fill-rule:nonzero;fill:rgb(17.647059%,19.607843%,21.176471%);fill-opacity:1;" d="M 11 2 C 9.894531 2 9 2.894531 9 4 L 9 19.5 C 6.449219 18.199219 5.289062 18 4 18 C 2.503906 18 1.007812 18.578125 1 20.484375 L 5.5 22.5 L 8.65625 25.65625 C 10.15625 27.15625 12.191406 28 14.3125 28 L 21 28 C 23.210938 28 25 26.210938 25 24 L 25 14 C 25 12.894531 24.105469 12 23 12 C 22.226562 12 21.523438 12.449219 21.191406 13.148438 C 21.066406 13.0625 21 13 21 13 C 21 11.894531 20.105469 11 19 11 C 17.894531 11 17 11.894531 17 13 L 17 12 C 17 10.894531 16.105469 10 15 10 C 13.894531 10 13 10.894531 13 12 L 13 4 C 13 2.894531 12.105469 2 11 2 Z M 1 20.484375 L 1 20.5 C 1 20.496094 1 20.492188 1 20.484375 Z M 1 20.484375 "/>
</g>
</svg>
