<?xml version="1.0" encoding="UTF-8"?>
<svg xmlns="http://www.w3.org/2000/svg" xmlns:xlink="http://www.w3.org/1999/xlink" width="24px" height="24px" viewBox="0 0 24 24" version="1.1">
<g id="surface1">
<path style="fill-rule:nonzero;fill:rgb(100%,100%,100%);fill-opacity:1;stroke-width:10;stroke-linecap:butt;stroke-linejoin:round;stroke:rgb(100%,100%,100%);stroke-opacity:1;stroke-miterlimit:10;" d="M 110.916193 34.124854 L 110.916193 102.41623 C 110.916193 92.957937 118.582827 85.332969 127.999454 85.332969 C 137.41608 85.332969 145.082714 92.957937 145.082714 102.41623 L 145.082714 110.916193 C 145.082714 101.499567 152.707682 93.874599 162.124308 93.874599 C 171.582601 93.874599 179.207569 101.499567 179.207569 110.916193 C 179.207569 110.916193 179.749233 111.457858 180.874228 112.207855 C 183.665883 106.249547 189.665857 102.41623 196.249163 102.41623 C 205.707456 102.41623 213.332423 110.041197 213.332423 119.457824 L 213.332423 204.790793 C 213.332423 223.665712 198.082488 238.915647 179.207569 238.915647 L 122.166145 238.915647 C 104.041223 238.915647 86.666297 231.749011 73.874685 218.915733 L 46.916466 191.999181 L 8.583297 174.832587 C 8.583297 158.54099 21.374909 153.582678 34.124854 153.582678 C 45.124807 153.582678 55.041432 155.291004 76.791339 166.415957 L 76.791339 34.124854 C 76.791339 24.708228 84.416306 17.08326 93.874599 17.08326 C 103.291226 17.08326 110.916193 24.708228 110.916193 34.124854 Z M 8.54163 174.91592 L 8.54163 174.790921 C 8.54163 174.874254 8.54163 174.91592 8.54163 174.91592 Z M 8.54163 174.91592 " transform="matrix(0.0937504,0,0,0.0937504,0,0)"/>
<path style=" stroke:none;fill-rule:nonzero;fill:rgb(17.647059%,19.607843%,21.176471%);fill-opacity:1;" d="M 8.800781 1.601562 C 7.914062 1.601562 7.199219 2.316406 7.199219 3.199219 L 7.199219 15.601562 C 5.160156 14.558594 4.230469 14.398438 3.199219 14.398438 C 2.003906 14.398438 0.804688 14.863281 0.800781 16.386719 L 4.398438 18 L 6.925781 20.523438 C 8.125 21.726562 9.753906 22.398438 11.449219 22.398438 L 16.800781 22.398438 C 18.570312 22.398438 20 20.96875 20 19.199219 L 20 11.199219 C 20 10.316406 19.285156 9.601562 18.398438 9.601562 C 17.78125 9.601562 17.21875 9.960938 16.953125 10.519531 C 16.851562 10.449219 16.800781 10.398438 16.800781 10.398438 C 16.800781 9.515625 16.085938 8.800781 15.199219 8.800781 C 14.316406 8.800781 13.601562 9.515625 13.601562 10.398438 L 13.601562 9.601562 C 13.601562 8.714844 12.882812 8 12 8 C 11.117188 8 10.398438 8.714844 10.398438 9.601562 L 10.398438 3.199219 C 10.398438 2.316406 9.683594 1.601562 8.800781 1.601562 Z M 0.800781 16.386719 L 0.800781 16.398438 C 0.800781 16.398438 0.800781 16.394531 0.800781 16.386719 Z M 0.800781 16.386719 "/>
</g>
</svg>
